<?xml version="1.0" encoding="UTF-8" standalone="no"?>
<svg
   xmlns:dc="http://purl.org/dc/elements/1.1/"
   xmlns:cc="http://creativecommons.org/ns#"
   xmlns:rdf="http://www.w3.org/1999/02/22-rdf-syntax-ns#"
   xmlns:svg="http://www.w3.org/2000/svg"
   xmlns="http://www.w3.org/2000/svg"
   id="svg12"
   version="1.1"
   style="overflow:visible"
   viewBox="-250 -250 500 500"
   height="2000px"
   width="2000px">
  <metadata
     id="metadata18">
    <rdf:RDF>
      <cc:Work
         rdf:about="">
        <dc:format>image/svg+xml</dc:format>
        <dc:type
           rdf:resource="http://purl.org/dc/dcmitype/StillImage" />
      </cc:Work>
    </rdf:RDF>
  </metadata>
  <defs
     id="defs16" />
  <rect
     id="rect2"
     fill-opacity="0"
     fill="rgb(0,0,0)"
     height="500"
     width="500"
     y="-250"
     x="-250" />
  <svg
     id="svg10"
     version="1.1"
     y="-250"
     x="-250"
     viewBox="-250 -250 500 500"
     height="500"
     width="500"
     style="overflow:visible">
    <g
       style="fill:#ffffff;stroke-linejoin:round"
       id="g8">
      <path
         style="fill:#fff9cb;fill-opacity:1;stroke:#444444;stroke-width:6;stroke-linecap:butt;stroke-linejoin:round;stroke-opacity:1"
         id="path4"
         d="m 0,-48.85724 c -51.49345,0 -73.32661,63.64684 -76.06641,93.29688 -1.52999,16.55748 12.24335,22.29016 18.13086,7.82226 6.28581,-15.44666 14.50586,-27.58984 14.50586,-27.58984 0,0 -8.83063,72.92471 -4.064461,101.61719 2.40739,14.49262 23.2873,16.48799 26.75782,-1.03907 2.43604,-12.30265 5.184,-32.644531 20.73633,-32.644531 15.55231,0 18.30028,20.341881 20.73632,32.644531 3.47052,17.52706 24.35042,15.53169 26.75781,1.03907 4.76617,-28.692482 -4.06445,-101.617192 -4.06445,-101.617192 0,0 8.22005,12.14318 14.50586,27.58984 5.88751,14.4679 19.66085,8.73522 18.13086,-7.82226 -2.73979,-29.65004 -24.57296,-93.29688 -76.06641,-93.29688 z" />
      <path
         style="fill:#fff9cb;fill-opacity:1;stroke:#444444;stroke-width:6;stroke-linecap:butt;stroke-linejoin:round;stroke-opacity:1"
         id="path6"
         d="m 57,-80.77951 a 56.999996,56.999996 0 0 1 -57,57 56.999996,56.999996 0 0 1 -57,-57 56.999996,56.999996 0 0 1 57,-57 56.999996,56.999996 0 0 1 57,57 z" />
    </g>
  </svg>
</svg>
